inDegrees=yes
name=ik_lifting_orientations
DataType=double
version=3
OpenSimVersion=4.5-2024-01-10-34fd6af
endheader
time	pelvis_tilt	pelvis_list	pelvis_rotation	pelvis_tx	pelvis_ty	pelvis_tz	hip_flexion_r	hip_adduction_r	hip_rotation_r	knee_angle_r	knee_angle_r_beta	ankle_angle_r	subtalar_angle_r	mtp_angle_r	hip_flexion_l	hip_adduction_l	hip_rotation_l	knee_angle_l	knee_angle_l_beta	ankle_angle_l	subtalar_angle_l	mtp_angle_l	lumbar_extension	lumbar_bending	lumbar_rotation	arm_flex_r	arm_add_r	arm_rot_r	elbow_flex_r	pro_sup_r	wrist_flex_r	wrist_dev_r	arm_flex_l	arm_add_l	arm_rot_l	elbow_flex_l	pro_sup_l	wrist_flex_l	wrist_dev_l
2.09	4.295043045215663	-7.399791062096646	-102.3555519947542	0	0.9399999998679526	0	45.11029332295561	-10.02993842611855	0	60.31894474967222	1.052764187210327	-5.004874635665725	0	0	45.11029332295561	-10.02993842611855	0	60.31894474967222	1.052764187210327	-5.004874635665725	0	0	-12.52103949626454	-4.386443550831599	37.67902893405632	5.646895665265442	-60.98290992209892	-14.40580279424111	170.2068325355194	0.5097668207088554	0	0	0	-12.48978214245465	0	89.50602845602084	0.5097668207088554	0	0
2.1	4.148748589705719	-7.444748146644778	-102.7128893854418	0	0.9399999998679526	0	45.11015333568265	-10.02980525949508	0	60.3186282838638	1.05275866384	-5.004846345766926	0	0	45.11015333568265	-10.02980525949508	0	60.3186282838638	1.05275866384	-5.004846345766926	0	0	-12.53197003578449	-4.325878372541198	38.20394997257351	10.32027147236251	-60.63890174064012	-9.863044960135301	170.1439897245199	0.5093171388236868	0	0	0	-12.49141025993156	0	89.50646404891187	0.5093171388236868	0	0
2.11	4.056669772470389	-7.510009072513649	-102.7353986514087	0	0.9399999998679526	0	45.11002160396217	-10.02968031482228	0	60.31833038365643	1.052753464500539	-5.004819835337255	0	0	45.11002160396217	-10.02968031482228	0	60.31833038365643	1.052753464500539	-5.004819835337255	0	0	-12.4846237706425	-4.235902117698662	38.48660416243214	14.30567356790369	-60.12605241331106	-6.083575510103475	169.6996457685045	0.5088938160736128	0	0	0	-12.492943303763	0	89.50687410852709	0.5088938160736128	0	0
2.12	3.978137144947909	-7.62829008399245	-102.7523789745106	0	0.9399999998679526	0	45.1098923636357	-10.0295581345148	0	60.31803799605463	1.052748361374196	-5.004793946650373	0	0	45.1098923636357	-10.0295581345148	0	60.31803799605463	1.052748361374196	-5.004793946650373	0	0	-12.43292712493228	-4.181757113694353	38.57197045584839	18.69108709397164	-59.33549713968857	-2.088566581218823	169.0947745777376	0.5084783196084758	0	0	0	-12.49444841764219	0	89.5072765870635	0.5084783196084758	0	0
2.13	3.914604997895259	-7.67081297952806	-103.0896594311181	0	0.9399999998679526	0	45.10976591812875	-10.02943892792094	0	60.31775186362862	1.052743367421265	-5.004768718081897	0	0	45.10976591812875	-10.02943892792094	0	60.31775186362862	1.052743367421265	-5.004768718081897	0	0	-12.27689775602018	-4.193973707876896	38.98385831169067	22.89524948647265	-58.22116518633749	1.587034669142971	168.2677036275015	0.5080716709089407	0	0	0	-12.49592178055501	0	89.50767049504445	0.5080716709089407	0	0
2.14	3.860032755406972	-7.608883196965969	-103.5933298810013	0	0.9399999998679526	0	45.10963655426122	-10.02931739589424	0	60.31745893205128	1.052738254800758	-5.00474303270407	0	0	45.10963655426122	-10.02931739589424	0	60.31745893205128	1.052738254800758	-5.00474303270407	0	0	-12.00045878006729	-4.221235020301589	39.55771713480707	26.1748982804937	-57.18343973122866	4.462267348132189	166.6749697372416	0.5076554212463474	0	0	0	-12.4974304546464	0	89.50807370318111	0.5076554212463474	0	0
2.15	3.837544803980561	-7.730069965093967	-103.5416094266556	0	0.9399999998679526	0	45.10953072169196	-10.02921825552139	0	60.31721918471225	1.052734070420319	-5.004722104265591	0	0	45.10953072169196	-10.02921825552139	0	60.31721918471225	1.052734070420319	-5.004722104265591	0	0	-11.87533606078343	-4.211792529437188	39.59401742732372	29.18640180278799	-56.02089611040817	7.052225707608101	165.01746535167	0.5073147531631127	0	0	0	-12.49866550312665	0	89.50840369778666	0.5073147531631127	0	0
2.16	3.735228852805988	-7.909243070517593	-103.6897859904156	0	0.9399999998679526	0	45.10939673939662	-10.02909301590497	0	60.31691574877143	1.052728774464082	-5.004695694581692	0	0	45.10939673939662	-10.02909301590497	0	60.31691574877143	1.052728774464082	-5.004695694581692	0	0	-11.87254075486805	-4.1654654124824	39.86580929876797	32.69824974311222	-54.90947391003252	9.972422662572953	163.4200375799981	0.5068834101645203	0	0	0	-12.50022934466797	0	89.50882152637091	0.5068834101645203	0	0
2.17	3.696300143229493	-7.875639086065839	-103.8206807468994	0	0.9399999998679526	0	45.10936294069447	-10.02906158600897	0	60.31683898636745	1.052727434707391	-5.004689076373681	0	0	45.10936294069447	-10.02906158600897	0	60.31683898636745	1.052727434707391	-5.004689076373681	0	0	-11.60455294208385	-4.130048593561457	40.06278658132398	32.54176465565974	-54.26536627118628	9.891566344169785	163.1912416077118	0.5067744620486256	0	0	0	-12.50062473628347	0	89.50892706103166	0.5067744620486256	0	0
2.18	3.647298558118989	-7.857037720833036	-103.9506144742915	0	0.9399999998679526	0	45.10933935231314	-10.02904012909452	0	60.31678450808725	1.052726483882031	-5.004684578515229	0	0	45.10933935231314	-10.02904012909452	0	60.31678450808725	1.052726483882031	-5.004684578515229	0	0	-11.33297351865208	-4.099863670737253	40.23191319729133	32.42931928482363	-53.83517912004798	9.833321915914567	162.6375307494014	0.5066979251062341	0	0	0	-12.50090403995218	0	89.50900119999389	0.5066979251062341	0	0
2.19	3.607951908736279	-7.782711278854339	-103.8359277033864	0	0.9399999998679526	0	45.10908233098424	-10.02880267713534	0	60.31620054453747	1.052716291795376	-5.004634716955285	0	0	45.10908233098424	-10.02880267713534	0	60.31620054453747	1.052716291795376	-5.004634716955285	0	0	-11.08313149143012	-4.027473580920122	40.07972555767152	36.48434003653792	-52.50642715605854	13.13644805705022	159.093662762823	0.5058689077548957	0	0	0	-12.50391350624306	0	89.50980424339147	0.5058689077548957	0	0
2.2	3.592445112491427	-7.757651383694614	-103.9434095080017	0	0.9399999998679526	0	45.10881567417143	-10.02855776226178	0	60.31559441447165	1.052705712830032	-5.004583417202708	0	0	45.10881567417143	-10.02855776226178	0	60.31559441447165	1.052705712830032	-5.004583417202708	0	0	-10.86069135831601	-4.025696420255837	40.13157562041015	40.34572675277388	-51.00012804489926	16.33598722876351	155.5156394614148	0.5050082057302219	0	0	0	-12.50703930265138	0	89.51063797875183	0.5050082057302219	0	0
2.21	3.579526050882909	-7.713871878600428	-104.0372583519603	0	0.9399999998679526	0	45.10859202930386	-10.028353639056	0	60.31508562322983	1.052696832747656	-5.004540771341951	0	0	45.10859202930386	-10.028353639056	0	60.31508562322983	1.052696832747656	-5.004540771341951	0	0	-10.51132006051015	-4.029556183221997	40.13230199742819	44.21997415706656	-49.28343358447777	19.48544085653792	151.7556265122599	0.50428573309397	0	0	0	-12.50966447078757	0	89.5113378155922	0.50428573309397	0	0
2.22	3.590029531588109	-7.583893716980472	-104.3560150745665	0	0.9399999998679526	0	45.10480899444438	-10.02618136414068	0	60.30408810422298	1.052504889831436	-5.004138715175565	0	0	45.10480899444438	-10.02618136414068	0	60.30408810422298	1.052504889831436	-5.004138715175565	0	0	-10.00553178459756	-4.083775747828342	40.37944566270441	47.9838147323146	-47.38081294268844	22.41023876197692	146.7925843802863	0.4906697508699898	0	0	0	-12.56343783666224	0	89.52452719477006	0.4906697508699898	0	0
2.23	3.639882082567837	-7.472102307482664	-104.2100260406448	0	0.9399999998679526	0	45.1018248366622	-10.02448916592714	0	60.29547060526391	1.052354486101313	-5.00382596375082	0	0	45.1018248366622	-10.02448916592714	0	60.29547060526391	1.052354486101313	-5.00382596375082	0	0	-9.555079851179547	-4.083961563950958	40.17078570752054	51.71787118540259	-45.26410249021774	25.31066027921112	141.6387291300148	0.4798939577457464	0	0	0	-12.60609475662169	0	89.53496537090561	0.4798939577457464	0	0
2.24	3.707713377117432	-7.347692784316745	-104.0033903641627	0	0.9399999998679526	0	45.09838966451345	-10.02263890619815	0	60.28549721049501	1.052180417524995	-5.003489395977877	0	0	45.09838966451345	-10.02263890619815	0	60.28549721049501	1.052180417524995	-5.003489395977877	0	0	-9.11186468750682	-4.112693497390002	39.73348621498484	55.28564883997009	-42.95752320064516	28.04202203135452	136.1255204619017	0.4673746560649359	0	0	0	-12.65596800228653	0	89.54709242944612	0.4673746560649359	0	0
2.25	3.766553090841588	-7.156114516597989	-104.1180222700493	0	0.9399999998679526	0	45.09448962465671	-10.02063180911157	0	60.27413540574513	1.051982116623141	-5.003129055079483	0	0	45.09448962465671	-10.02063180911157	0	60.27413540574513	1.051982116623141	-5.003129055079483	0	0	-8.403568452470083	-4.148921793590752	39.77377839853529	58.43280233244006	-40.53610227543437	30.34630862648199	129.4831403401806	0.4530371867580664	0	0	0	-12.71343104913357	0	89.56098069021166	0.4530371867580664	0	0
2.26	3.851550022721532	-7.04299545699265	-104.0912451682387	0	0.9399999998679526	0	45.09095473218726	-10.01891008860748	0	60.26384420401127	1.051802501268898	-5.002825296144422	0	0	45.09095473218726	-10.01891008860748	0	60.26384420401127	1.051802501268898	-5.002825296144422	0	0	-7.902976570071956	-4.205915421367325	39.71596986378007	61.49687132314936	-38.12373898320557	32.49108671566989	123.090417934734	0.4399180347617749	0	0	0	-12.76634883302881	0	89.57368880455526	0.4399180347617749	0	0
